<svg xmlns="http://www.w3.org/2000/svg" viewBox="0 0 600 400" width="600" height="400">
  <!-- Background -->
  <rect width="600" height="400" fill="#f5f8ff" rx="20" ry="20" />
  
  <!-- Company Building -->
  <g transform="translate(300, 200)">
    <!-- Main Building Structure -->
    <rect x="-100" y="-120" width="200" height="200" fill="#4267b2" />
    
    <!-- Windows -->
    <g fill="#e1e9ff">
      <!-- Row 1 -->
      <rect x="-80" y="-100" width="20" height="20" rx="2" ry="2" />
      <rect x="-40" y="-100" width="20" height="20" rx="2" ry="2" />
      <rect x="0" y="-100" width="20" height="20" rx="2" ry="2" />
      <rect x="40" y="-100" width="20" height="20" rx="2" ry="2" />
      
      <!-- Row 2 -->
      <rect x="-80" y="-60" width="20" height="20" rx="2" ry="2" />
      <rect x="-40" y="-60" width="20" height="20" rx="2" ry="2" />
      <rect x="0" y="-60" width="20" height="20" rx="2" ry="2" />
      <rect x="40" y="-60" width="20" height="20" rx="2" ry="2" />
      
      <!-- Row 3 -->
      <rect x="-80" y="-20" width="20" height="20" rx="2" ry="2" />
      <rect x="-40" y="-20" width="20" height="20" rx="2" ry="2" />
      <rect x="0" y="-20" width="20" height="20" rx="2" ry="2" />
      <rect x="40" y="-20" width="20" height="20" rx="2" ry="2" />
    </g>
    
    <!-- Door -->
    <rect x="-20" y="40" width="40" height="40" fill="#3a5999" />
    <rect x="-15" y="45" width="30" height="35" fill="#5273b7" />
    
    <!-- Company Logo on Building -->
    <rect x="-50" y="-150" width="100" height="20" rx="10" ry="10" fill="#ffffff" />
    <text x="0" y="-135" font-family="Arial" font-size="16" font-weight="bold" fill="#3a5999" text-anchor="middle">MKDigital</text>
  </g>
  
  <!-- Digital Elements -->
  <g>
    <!-- Server Tower -->
    <g transform="translate(100, 200)">
      <rect x="-30" y="-80" width="60" height="120" rx="5" ry="5" fill="#3a5999" />
      <rect x="-25" y="-75" width="50" height="110" rx="3" ry="3" fill="#5273b7" />
      
      <!-- Server Lights -->
      <circle cx="-15" cy="-60" r="3" fill="#4CAF50" />
      <circle cx="0" cy="-60" r="3" fill="#FFC107" />
      <circle cx="15" cy="-60" r="3" fill="#F44336" />
      
      <!-- Server Slots -->
      <rect x="-20" y="-40" width="40" height="5" fill="#e1e9ff" />
      <rect x="-20" y="-30" width="40" height="5" fill="#e1e9ff" />
      <rect x="-20" y="-20" width="40" height="5" fill="#e1e9ff" />
      <rect x="-20" y="-10" width="40" height="5" fill="#e1e9ff" />
      <rect x="-20" y="0" width="40" height="5" fill="#e1e9ff" />
      <rect x="-20" y="10" width="40" height="5" fill="#e1e9ff" />
      <rect x="-20" y="20" width="40" height="5" fill="#e1e9ff" />
    </g>
    
    <!-- Digital Marketing Elements -->
    <g transform="translate(500, 200)">
      <!-- Social Media Icons -->
      <circle cx="-50" cy="-50" r="15" fill="#3b5998" />
      <text x="-50" y="-45" font-family="Arial" font-size="15" fill="#ffffff" text-anchor="middle">f</text>
      
      <circle cx="-20" cy="-50" r="15" fill="#1DA1F2" />
      <text x="-20" y="-45" font-family="Arial" font-size="15" fill="#ffffff" text-anchor="middle">t</text>
      
      <circle cx="10" cy="-50" r="15" fill="#C13584" />
      <text x="10" y="-45" font-family="Arial" font-size="15" fill="#ffffff" text-anchor="middle">i</text>
      
      <circle cx="40" cy="-50" r="15" fill="#0077b5" />
      <text x="40" y="-45" font-family="Arial" font-size="15" fill="#ffffff" text-anchor="middle">in</text>
      
      <!-- Analytics Graph -->
      <polyline points="-60,0 -40,20 -20,-10 0,30 20,10 40,-20 60,0" fill="none" stroke="#4267b2" stroke-width="3" />
      <circle cx="-60" cy="0" r="4" fill="#4267b2" />
      <circle cx="-40" cy="20" r="4" fill="#4267b2" />
      <circle cx="-20" cy="-10" r="4" fill="#4267b2" />
      <circle cx="0" cy="30" r="4" fill="#4267b2" />
      <circle cx="20" cy="10" r="4" fill="#4267b2" />
      <circle cx="40" cy="-20" r="4" fill="#4267b2" />
      <circle cx="60" cy="0" r="4" fill="#4267b2" />
    </g>
  </g>
  
  <!-- AI Integration -->
  <g transform="translate(300, 100)">
    <circle cx="0" cy="0" r="40" fill="#4267b2" opacity="0.8" />
    <circle cx="0" cy="0" r="35" fill="#5273b7" opacity="0.9" />
    
    <!-- AI Core -->
    <g>
      <!-- Circuit Pattern -->
      <path d="M -20 0 L -10 0" stroke="#ffffff" stroke-width="2" />
      <path d="M 10 0 L 20 0" stroke="#ffffff" stroke-width="2" />
      <path d="M 0 -20 L 0 -10" stroke="#ffffff" stroke-width="2" />
      <path d="M 0 10 L 0 20" stroke="#ffffff" stroke-width="2" />
      
      <!-- Diagonal Lines -->
      <path d="M -15 -15 L -8 -8" stroke="#ffffff" stroke-width="2" />
      <path d="M 15 -15 L 8 -8" stroke="#ffffff" stroke-width="2" />
      <path d="M -15 15 L -8 8" stroke="#ffffff" stroke-width="2" />
      <path d="M 15 15 L 8 8" stroke="#ffffff" stroke-width="2" />
      
      <!-- Central AI Text -->
      <text x="0" y="5" font-family="Arial" font-size="16" font-weight="bold" fill="#ffffff" text-anchor="middle">AI</text>
    </g>
    
    <!-- Connection Lines to Building -->
    <line x1="0" y1="40" x2="0" y2="60" stroke="#3a5999" stroke-width="2" stroke-dasharray="5,3" />
  </g>
  
  <!-- Company Timeline -->
  <g transform="translate(300, 350)">
    <line x1="-200" y1="0" x2="200" y2="0" stroke="#3a5999" stroke-width="3" />
    
    <!-- Timeline Points -->
    <circle cx="-150" cy="0" r="8" fill="#4267b2" />
    <text x="-150" y="20" font-family="Arial" font-size="12" fill="#3a5999" text-anchor="middle">2018</text>
    <text x="-150" y="-10" font-family="Arial" font-size="10" fill="#3a5999" text-anchor="middle">Founded</text>
    
    <circle cx="-50" cy="0" r="8" fill="#4267b2" />
    <text x="-50" y="20" font-family="Arial" font-size="12" fill="#3a5999" text-anchor="middle">2020</text>
    <text x="-50" y="-10" font-family="Arial" font-size="10" fill="#3a5999" text-anchor="middle">Expansion</text>
    
    <circle cx="50" cy="0" r="8" fill="#4267b2" />
    <text x="50" y="20" font-family="Arial" font-size="12" fill="#3a5999" text-anchor="middle">2022</text>
    <text x="50" y="-10" font-family="Arial" font-size="10" fill="#3a5999" text-anchor="middle">AI Integration</text>
    
    <circle cx="150" cy="0" r="8" fill="#4267b2" />
    <text x="150" y="20" font-family="Arial" font-size="12" fill="#3a5999" text-anchor="middle">2023</text>
    <text x="150" y="-10" font-family="Arial" font-size="10" fill="#3a5999" text-anchor="middle">No.1 in India</text>
  </g>
  
  <!-- Title -->
  <text x="300" y="30" font-family="Arial" font-size="20" font-weight="bold" fill="#3a5999" text-anchor="middle">MKDigital: Our Journey</text>
</svg>