<svg xmlns="http://www.w3.org/2000/svg" viewBox="0 0 300 300" width="300" height="300">
  <!-- Background -->
  <rect width="300" height="300" fill="#f5f8ff" rx="20" ry="20" />
  
  <!-- Automation Gears -->
  <g transform="translate(150, 150)">
    <!-- Main Gear -->
    <circle cx="0" cy="0" r="60" fill="#4267b2" />
    <circle cx="0" cy="0" r="50" fill="#5273b7" />
    <circle cx="0" cy="0" r="15" fill="#ffffff" />
    
    <!-- Gear Teeth -->
    <g>
      <rect x="-5" y="-65" width="10" height="15" fill="#4267b2" />
      <rect x="-5" y="50" width="10" height="15" fill="#4267b2" />
      <rect x="-65" y="-5" width="15" height="10" fill="#4267b2" />
      <rect x="50" y="-5" width="15" height="10" fill="#4267b2" />
      
      <!-- Diagonal Teeth -->
      <rect x="-48" y="-48" width="15" height="10" transform="rotate(45)" fill="#4267b2" />
      <rect x="-48" y="38" width="15" height="10" transform="rotate(-45)" fill="#4267b2" />
      <rect x="33" y="-48" width="15" height="10" transform="rotate(135)" fill="#4267b2" />
      <rect x="33" y="38" width="15" height="10" transform="rotate(-135)" fill="#4267b2" />
    </g>
    
    <!-- Smaller Gears -->
    <g transform="translate(-80, 0)">
      <circle cx="0" cy="0" r="25" fill="#3a5999" />
      <circle cx="0" cy="0" r="20" fill="#4267b2" />
      <circle cx="0" cy="0" r="8" fill="#ffffff" />
      
      <!-- Small Gear Teeth -->
      <rect x="-3" y="-30" width="6" height="10" fill="#3a5999" />
      <rect x="-3" y="20" width="6" height="10" fill="#3a5999" />
      <rect x="-30" y="-3" width="10" height="6" fill="#3a5999" />
      <rect x="20" y="-3" width="10" height="6" fill="#3a5999" />
      
      <!-- Diagonal Teeth -->
      <rect x="-22" y="-22" width="10" height="6" transform="rotate(45)" fill="#3a5999" />
      <rect x="-22" y="16" width="10" height="6" transform="rotate(-45)" fill="#3a5999" />
      <rect x="16" y="-22" width="10" height="6" transform="rotate(135)" fill="#3a5999" />
      <rect x="16" y="16" width="10" height="6" transform="rotate(-135)" fill="#3a5999" />
    </g>
    
    <g transform="translate(80, 0)">
      <circle cx="0" cy="0" r="25" fill="#3a5999" />
      <circle cx="0" cy="0" r="20" fill="#4267b2" />
      <circle cx="0" cy="0" r="8" fill="#ffffff" />
      
      <!-- Small Gear Teeth -->
      <rect x="-3" y="-30" width="6" height="10" fill="#3a5999" />
      <rect x="-3" y="20" width="6" height="10" fill="#3a5999" />
      <rect x="-30" y="-3" width="10" height="6" fill="#3a5999" />
      <rect x="20" y="-3" width="10" height="6" fill="#3a5999" />
      
      <!-- Diagonal Teeth -->
      <rect x="-22" y="-22" width="10" height="6" transform="rotate(45)" fill="#3a5999" />
      <rect x="-22" y="16" width="10" height="6" transform="rotate(-45)" fill="#3a5999" />
      <rect x="16" y="-22" width="10" height="6" transform="rotate(135)" fill="#3a5999" />
      <rect x="16" y="16" width="10" height="6" transform="rotate(-135)" fill="#3a5999" />
    </g>
    
    <!-- AI Core -->
    <text x="0" y="5" font-family="Arial" font-size="14" font-weight="bold" fill="#ffffff" text-anchor="middle">AI</text>
  </g>
  
  <!-- Automation Flow -->
  <g transform="translate(50, 50)">
    <!-- Input -->
    <rect x="0" y="0" width="40" height="30" rx="5" ry="5" fill="#3a5999" />
    <text x="20" y="20" font-family="Arial" font-size="10" fill="#ffffff" text-anchor="middle">Input</text>
    
    <!-- Process 1 -->
    <rect x="70" y="0" width="40" height="30" rx="5" ry="5" fill="#4267b2" />
    <text x="90" y="20" font-family="Arial" font-size="10" fill="#ffffff" text-anchor="middle">Process</text>
    
    <!-- Process 2 -->
    <rect x="140" y="0" width="40" height="30" rx="5" ry="5" fill="#4267b2" />
    <text x="160" y="20" font-family="Arial" font-size="10" fill="#ffffff" text-anchor="middle">Analyze</text>
    
    <!-- Output -->
    <rect x="210" y="0" width="40" height="30" rx="5" ry="5" fill="#5273b7" />
    <text x="230" y="20" font-family="Arial" font-size="10" fill="#ffffff" text-anchor="middle">Output</text>
    
    <!-- Connecting Arrows -->
    <line x1="40" y1="15" x2="70" y2="15" stroke="#3a5999" stroke-width="2" marker-end="url(#arrow)" />
    <line x1="110" y1="15" x2="140" y2="15" stroke="#3a5999" stroke-width="2" marker-end="url(#arrow)" />
    <line x1="180" y1="15" x2="210" y2="15" stroke="#3a5999" stroke-width="2" marker-end="url(#arrow)" />
  </g>
  
  <!-- Arrow Marker -->
  <defs>
    <marker id="arrow" markerWidth="10" markerHeight="10" refX="9" refY="3" orient="auto" markerUnits="strokeWidth">
      <path d="M0,0 L0,6 L9,3 z" fill="#3a5999" />
    </marker>
  </defs>
  
  <!-- Automation Benefits -->
  <g transform="translate(50, 240)">
    <rect x="0" y="0" width="50" height="30" rx="5" ry="5" fill="#e1e9ff" />
    <text x="25" y="20" font-family="Arial" font-size="10" fill="#3a5999" text-anchor="middle">Time</text>
    
    <rect x="60" y="0" width="50" height="30" rx="5" ry="5" fill="#e1e9ff" />
    <text x="85" y="20" font-family="Arial" font-size="10" fill="#3a5999" text-anchor="middle">Efficiency</text>
    
    <rect x="120" y="0" width="50" height="30" rx="5" ry="5" fill="#e1e9ff" />
    <text x="145" y="20" font-family="Arial" font-size="10" fill="#3a5999" text-anchor="middle">Accuracy</text>
    
    <rect x="180" y="0" width="50" height="30" rx="5" ry="5" fill="#e1e9ff" />
    <text x="205" y="20" font-family="Arial" font-size="10" fill="#3a5999" text-anchor="middle">Scale</text>
  </g>
  
  <!-- Title -->
  <text x="150" y="270" font-family="Arial" font-size="16" font-weight="bold" fill="#3a5999" text-anchor="middle">Marketing Automation</text>
</svg>