<svg xmlns="http://www.w3.org/2000/svg" viewBox="0 0 300 300" width="300" height="300">
  <!-- Background -->
  <rect width="300" height="300" fill="#f5f8ff" rx="20" ry="20" />
  
  <!-- Content Document -->
  <g transform="translate(150, 150)">
    <!-- Main Document -->
    <rect x="-60" y="-80" width="120" height="160" fill="#ffffff" stroke="#4267b2" stroke-width="2" />
    
    <!-- Document Lines -->
    <line x1="-40" y1="-60" x2="40" y2="-60" stroke="#5273b7" stroke-width="2" />
    <line x1="-40" y1="-40" x2="40" y2="-40" stroke="#5273b7" stroke-width="2" />
    <line x1="-40" y1="-20" x2="40" y2="-20" stroke="#5273b7" stroke-width="2" />
    <line x1="-40" y1="0" x2="20" y2="0" stroke="#5273b7" stroke-width="2" />
    <line x1="-40" y1="20" x2="40" y2="20" stroke="#5273b7" stroke-width="2" />
    <line x1="-40" y1="40" x2="30" y2="40" stroke="#5273b7" stroke-width="2" />
    
    <!-- AI Writing Assistant -->
    <g transform="translate(30, -10)">
      <circle cx="0" cy="0" r="20" fill="#4267b2" />
      <circle cx="0" cy="0" r="15" fill="#5273b7" />
      <text x="0" y="4" font-family="Arial" font-size="10" fill="#ffffff" text-anchor="middle">AI</text>
    </g>
    
    <!-- Document Title -->
    <rect x="-50" y="-75" width="100" height="10" fill="#e1e9ff" />
  </g>
  
  <!-- Content Types -->
  <g transform="translate(60, 60)">
    <!-- Blog Icon -->
    <rect x="-20" y="-20" width="40" height="40" rx="5" ry="5" fill="#e1e9ff" stroke="#3a5999" stroke-width="1" />
    <text x="0" y="5" font-family="Arial" font-size="10" fill="#3a5999" text-anchor="middle">Blog</text>
    
    <!-- Connection to Document -->
    <line x1="20" y1="10" x2="70" y2="50" stroke="#3a5999" stroke-width="1" stroke-dasharray="3,2" />
  </g>
  
  <g transform="translate(60, 240)">
    <!-- Social Media Icon -->
    <rect x="-20" y="-20" width="40" height="40" rx="5" ry="5" fill="#e1e9ff" stroke="#3a5999" stroke-width="1" />
    <text x="0" y="-5" font-family="Arial" font-size="8" fill="#3a5999" text-anchor="middle">Social</text>
    <text x="0" y="5" font-family="Arial" font-size="8" fill="#3a5999" text-anchor="middle">Media</text>
    
    <!-- Connection to Document -->
    <line x1="20" y1="-10" x2="70" y2="-50" stroke="#3a5999" stroke-width="1" stroke-dasharray="3,2" />
  </g>
  
  <g transform="translate(240, 60)">
    <!-- Email Icon -->
    <rect x="-20" y="-20" width="40" height="40" rx="5" ry="5" fill="#e1e9ff" stroke="#3a5999" stroke-width="1" />
    <text x="0" y="5" font-family="Arial" font-size="10" fill="#3a5999" text-anchor="middle">Email</text>
    
    <!-- Connection to Document -->
    <line x1="-20" y1="10" x2="-70" y2="50" stroke="#3a5999" stroke-width="1" stroke-dasharray="3,2" />
  </g>
  
  <g transform="translate(240, 240)">
    <!-- Video Icon -->
    <rect x="-20" y="-20" width="40" height="40" rx="5" ry="5" fill="#e1e9ff" stroke="#3a5999" stroke-width="1" />
    <text x="0" y="5" font-family="Arial" font-size="10" fill="#3a5999" text-anchor="middle">Video</text>
    
    <!-- Connection to Document -->
    <line x1="-20" y1="-10" x2="-70" y2="-50" stroke="#3a5999" stroke-width="1" stroke-dasharray="3,2" />
  </g>
  
  <!-- Content Strategy Elements -->
  <g transform="translate(150, 40)">
    <rect x="-80" y="-15" width="160" height="30" rx="15" ry="15" fill="#4267b2" />
    <text x="0" y="5" font-family="Arial" font-size="12" fill="#ffffff" text-anchor="middle">AI-Driven Content Strategy</text>
  </g>
  
  <!-- Analytics -->
  <g transform="translate(150, 260)">
    <!-- Chart -->
    <rect x="-50" y="-20" width="100" height="40" rx="5" ry="5" fill="#e1e9ff" stroke="#3a5999" stroke-width="1" />
    
    <!-- Bar Chart Elements -->
    <rect x="-40" y="0" width="10" height="-10" fill="#4267b2" />
    <rect x="-25" y="0" width="10" height="-15" fill="#4267b2" />
    <rect x="-10" y="0" width="10" height="-5" fill="#4267b2" />
    <rect x="5" y="0" width="10" height="-12" fill="#4267b2" />
    <rect x="20" y="0" width="10" height="-8" fill="#4267b2" />
    <rect x="35" y="0" width="10" height="-18" fill="#4267b2" />
    
    <text x="0" y="15" font-family="Arial" font-size="10" fill="#3a5999" text-anchor="middle">Performance Analytics</text>
  </g>
  
  <!-- Title -->
  <text x="150" y="280" font-family="Arial" font-size="16" font-weight="bold" fill="#3a5999" text-anchor="middle">Content Marketing</text>
</svg>