<svg xmlns="http://www.w3.org/2000/svg" viewBox="0 0 800 600" width="800" height="600">
  <!-- Background -->
  <rect width="800" height="600" fill="#f0f5ff"/>
  
  <!-- Abstract Digital Marketing Elements -->
  <g>
    <!-- Central Hub (representing AI core) -->
    <circle cx="400" cy="300" r="80" fill="#3a5ca8" opacity="0.9"/>
    <circle cx="400" cy="300" r="70" fill="#4d62a3" opacity="0.9"/>
    <circle cx="400" cy="300" r="60" fill="#5a71a9" opacity="0.9"/>
    
    <!-- Pulse Rings (representing digital reach) -->
    <circle cx="400" cy="300" r="100" fill="none" stroke="#3a5ca8" stroke-width="2" opacity="0.5"/>
    <circle cx="400" cy="300" r="130" fill="none" stroke="#3a5ca8" stroke-width="1.5" opacity="0.4"/>
    <circle cx="400" cy="300" r="160" fill="none" stroke="#3a5ca8" stroke-width="1" opacity="0.3"/>
    <circle cx="400" cy="300" r="190" fill="none" stroke="#3a5ca8" stroke-width="0.5" opacity="0.2"/>
    
    <!-- Connection Nodes (representing marketing channels) -->
    <g>
      <!-- Social Media Node -->
      <circle cx="250" cy="200" r="30" fill="#5273b7" opacity="0.8"/>
      <path d="M 260 190 L 240 190 L 240 210 L 260 210 Z" fill="white" opacity="0.9"/>
      <line x1="250" y1="200" x2="340" y2="250" stroke="#3a5ca8" stroke-width="2" opacity="0.6"/>
      
      <!-- SEO Node -->
      <circle cx="550" cy="200" r="30" fill="#5273b7" opacity="0.8"/>
      <text x="550" y="205" font-family="Arial" font-size="12" fill="white" text-anchor="middle">SEO</text>
      <line x1="550" y1="200" x2="460" y2="250" stroke="#3a5ca8" stroke-width="2" opacity="0.6"/>
      
      <!-- Content Node -->
      <circle cx="250" cy="400" r="30" fill="#5273b7" opacity="0.8"/>
      <path d="M 240 390 L 260 390 L 260 410 L 240 410 Z" fill="white" opacity="0.9"/>
      <line x1="250" y1="400" x2="340" y2="350" stroke="#3a5ca8" stroke-width="2" opacity="0.6"/>
      
      <!-- Web Dev Node -->
      <circle cx="550" cy="400" r="30" fill="#5273b7" opacity="0.8"/>
      <path d="M 540 395 L 545 390 L 555 400 L 545 410 L 540 405 L 550 395 L 540 395" fill="white" opacity="0.9"/>
      <line x1="550" y1="400" x2="460" y2="350" stroke="#3a5ca8" stroke-width="2" opacity="0.6"/>
    </g>
    
    <!-- Data Streams -->
    <g>
      <path d="M 400 220 C 380 200, 420 180, 400 160" fill="none" stroke="#3a5ca8" stroke-width="2" opacity="0.7"/>
      <path d="M 400 380 C 420 400, 380 420, 400 440" fill="none" stroke="#3a5ca8" stroke-width="2" opacity="0.7"/>
      <path d="M 320 300 C 300 320, 280 280, 260 300" fill="none" stroke="#3a5ca8" stroke-width="2" opacity="0.7"/>
      <path d="M 480 300 C 500 280, 520 320, 540 300" fill="none" stroke="#3a5ca8" stroke-width="2" opacity="0.7"/>
    </g>
    
    <!-- Digital Icons -->
    <g>
      <!-- Analytics Icon -->
      <rect x="385" y="285" width="30" height="30" fill="white" opacity="0.9"/>
      <path d="M 390 305 L 395 295 L 400 300 L 405 290 L 410 305" fill="none" stroke="#3a5ca8" stroke-width="2"/>
      
      <!-- AI Symbol -->
      <text x="400" y="305" font-family="Arial" font-size="16" font-weight="bold" fill="white" text-anchor="middle">AI</text>
    </g>
  </g>
  
  <!-- Decorative Elements -->
  <g>
    <!-- Abstract Circuit Pattern (top) -->
    <path d="M 50 50 L 100 50 L 100 100 L 150 100" fill="none" stroke="#3a5ca8" stroke-width="1" opacity="0.3"/>
    <path d="M 200 50 L 250 50 L 250 100 L 300 100" fill="none" stroke="#3a5ca8" stroke-width="1" opacity="0.3"/>
    <path d="M 350 50 L 400 50 L 400 100 L 450 100" fill="none" stroke="#3a5ca8" stroke-width="1" opacity="0.3"/>
    <path d="M 500 50 L 550 50 L 550 100 L 600 100" fill="none" stroke="#3a5ca8" stroke-width="1" opacity="0.3"/>
    <path d="M 650 50 L 700 50 L 700 100 L 750 100" fill="none" stroke="#3a5ca8" stroke-width="1" opacity="0.3"/>
    
    <!-- Abstract Circuit Pattern (bottom) -->
    <path d="M 50 550 L 100 550 L 100 500 L 150 500" fill="none" stroke="#3a5ca8" stroke-width="1" opacity="0.3"/>
    <path d="M 200 550 L 250 550 L 250 500 L 300 500" fill="none" stroke="#3a5ca8" stroke-width="1" opacity="0.3"/>
    <path d="M 350 550 L 400 550 L 400 500 L 450 500" fill="none" stroke="#3a5ca8" stroke-width="1" opacity="0.3"/>
    <path d="M 500 550 L 550 550 L 550 500 L 600 500" fill="none" stroke="#3a5ca8" stroke-width="1" opacity="0.3"/>
    <path d="M 650 550 L 700 550 L 700 500 L 750 500" fill="none" stroke="#3a5ca8" stroke-width="1" opacity="0.3"/>
    
    <!-- Connection Dots -->
    <circle cx="100" cy="50" r="3" fill="#3a5ca8" opacity="0.5"/>
    <circle cx="250" cy="50" r="3" fill="#3a5ca8" opacity="0.5"/>
    <circle cx="400" cy="50" r="3" fill="#3a5ca8" opacity="0.5"/>
    <circle cx="550" cy="50" r="3" fill="#3a5ca8" opacity="0.5"/>
    <circle cx="700" cy="50" r="3" fill="#3a5ca8" opacity="0.5"/>
    
    <circle cx="150" cy="100" r="3" fill="#3a5ca8" opacity="0.5"/>
    <circle cx="300" cy="100" r="3" fill="#3a5ca8" opacity="0.5"/>
    <circle cx="450" cy="100" r="3" fill="#3a5ca8" opacity="0.5"/>
    <circle cx="600" cy="100" r="3" fill="#3a5ca8" opacity="0.5"/>
    <circle cx="750" cy="100" r="3" fill="#3a5ca8" opacity="0.5"/>
    
    <circle cx="100" cy="550" r="3" fill="#3a5ca8" opacity="0.5"/>
    <circle cx="250" cy="550" r="3" fill="#3a5ca8" opacity="0.5"/>
    <circle cx="400" cy="550" r="3" fill="#3a5ca8" opacity="0.5"/>
    <circle cx="550" cy="550" r="3" fill="#3a5ca8" opacity="0.5"/>
    <circle cx="700" cy="550" r="3" fill="#3a5ca8" opacity="0.5"/>
    
    <circle cx="150" cy="500" r="3" fill="#3a5ca8" opacity="0.5"/>
    <circle cx="300" cy="500" r="3" fill="#3a5ca8" opacity="0.5"/>
    <circle cx="450" cy="500" r="3" fill="#3a5ca8" opacity="0.5"/>
    <circle cx="600" cy="500" r="3" fill="#3a5ca8" opacity="0.5"/>
    <circle cx="750" cy="500" r="3" fill="#3a5ca8" opacity="0.5"/>
  </g>
  
  <!-- MKDigital Branding -->
  <text x="400" y="520" font-family="Arial" font-size="24" font-weight="bold" fill="#3a5ca8" text-anchor="middle">MKDigital: AI-Powered Marketing</text>
</svg>