<svg xmlns="http://www.w3.org/2000/svg" viewBox="0 0 800 600" width="800" height="600">
  <!-- Background -->
  <rect width="800" height="600" fill="#f5f5ff"/>
  
  <!-- Skyline -->
  <g>
    <!-- Building 1 (Business Tower) -->
    <rect x="300" y="100" width="150" height="400" fill="#455a8c"/>
    <rect x="320" y="120" width="110" height="360" fill="#5a71a9"/>
    
    <!-- Windows for Building 1 -->
    <g fill="#c9d8ff">
      <!-- Row 1 -->
      <rect x="330" y="130" width="20" height="20"/>
      <rect x="360" y="130" width="20" height="20"/>
      <rect x="390" y="130" width="20" height="20"/>
      
      <!-- Row 2 -->
      <rect x="330" y="160" width="20" height="20"/>
      <rect x="360" y="160" width="20" height="20"/>
      <rect x="390" y="160" width="20" height="20"/>
      
      <!-- Row 3 -->
      <rect x="330" y="190" width="20" height="20"/>
      <rect x="360" y="190" width="20" height="20"/>
      <rect x="390" y="190" width="20" height="20"/>
      
      <!-- Row 4 -->
      <rect x="330" y="220" width="20" height="20"/>
      <rect x="360" y="220" width="20" height="20"/>
      <rect x="390" y="220" width="20" height="20"/>
      
      <!-- Row 5 -->
      <rect x="330" y="250" width="20" height="20"/>
      <rect x="360" y="250" width="20" height="20"/>
      <rect x="390" y="250" width="20" height="20"/>
      
      <!-- Row 6 -->
      <rect x="330" y="280" width="20" height="20"/>
      <rect x="360" y="280" width="20" height="20"/>
      <rect x="390" y="280" width="20" height="20"/>
      
      <!-- Row 7 -->
      <rect x="330" y="310" width="20" height="20"/>
      <rect x="360" y="310" width="20" height="20"/>
      <rect x="390" y="310" width="20" height="20"/>
      
      <!-- Row 8 -->
      <rect x="330" y="340" width="20" height="20"/>
      <rect x="360" y="340" width="20" height="20"/>
      <rect x="390" y="340" width="20" height="20"/>
      
      <!-- Row 9 -->
      <rect x="330" y="370" width="20" height="20"/>
      <rect x="360" y="370" width="20" height="20"/>
      <rect x="390" y="370" width="20" height="20"/>
      
      <!-- Row 10 -->
      <rect x="330" y="400" width="20" height="20"/>
      <rect x="360" y="400" width="20" height="20"/>
      <rect x="390" y="400" width="20" height="20"/>
      
      <!-- Row 11 -->
      <rect x="330" y="430" width="20" height="20"/>
      <rect x="360" y="430" width="20" height="20"/>
      <rect x="390" y="430" width="20" height="20"/>
    </g>
    
    <!-- Entrance -->
    <rect x="350" y="460" width="50" height="40" fill="#2d3b59"/>
    <rect x="365" y="470" width="20" height="30" fill="#c9d8ff"/>
    
    <!-- Building 2 (Skyscraper) -->
    <rect x="480" y="150" width="100" height="350" fill="#3a4c7a"/>
    <rect x="490" y="170" width="80" height="310" fill="#4d62a3"/>
    
    <!-- Windows for Building 2 -->
    <g fill="#c9d8ff">
      <!-- Row 1 -->
      <rect x="500" y="180" width="15" height="15"/>
      <rect x="525" y="180" width="15" height="15"/>
      <rect x="550" y="180" width="15" height="15"/>
      
      <!-- Row 2 -->
      <rect x="500" y="205" width="15" height="15"/>
      <rect x="525" y="205" width="15" height="15"/>
      <rect x="550" y="205" width="15" height="15"/>
      
      <!-- Row 3 -->
      <rect x="500" y="230" width="15" height="15"/>
      <rect x="525" y="230" width="15" height="15"/>
      <rect x="550" y="230" width="15" height="15"/>
      
      <!-- Row 4 -->
      <rect x="500" y="255" width="15" height="15"/>
      <rect x="525" y="255" width="15" height="15"/>
      <rect x="550" y="255" width="15" height="15"/>
      
      <!-- Row 5 -->
      <rect x="500" y="280" width="15" height="15"/>
      <rect x="525" y="280" width="15" height="15"/>
      <rect x="550" y="280" width="15" height="15"/>
      
      <!-- Row 6 -->
      <rect x="500" y="305" width="15" height="15"/>
      <rect x="525" y="305" width="15" height="15"/>
      <rect x="550" y="305" width="15" height="15"/>
      
      <!-- Row 7 -->
      <rect x="500" y="330" width="15" height="15"/>
      <rect x="525" y="330" width="15" height="15"/>
      <rect x="550" y="330" width="15" height="15"/>
      
      <!-- Row 8 -->
      <rect x="500" y="355" width="15" height="15"/>
      <rect x="525" y="355" width="15" height="15"/>
      <rect x="550" y="355" width="15" height="15"/>
      
      <!-- Row 9 -->
      <rect x="500" y="380" width="15" height="15"/>
      <rect x="525" y="380" width="15" height="15"/>
      <rect x="550" y="380" width="15" height="15"/>
      
      <!-- Row 10 -->
      <rect x="500" y="405" width="15" height="15"/>
      <rect x="525" y="405" width="15" height="15"/>
      <rect x="550" y="405" width="15" height="15"/>
      
      <!-- Row 11 -->
      <rect x="500" y="430" width="15" height="15"/>
      <rect x="525" y="430" width="15" height="15"/>
      <rect x="550" y="430" width="15" height="15"/>
      
      <!-- Row 12 -->
      <rect x="500" y="455" width="15" height="15"/>
      <rect x="525" y="455" width="15" height="15"/>
      <rect x="550" y="455" width="15" height="15"/>
    </g>
    
    <!-- Building 3 (Left) -->
    <rect x="150" y="200" width="120" height="300" fill="#5273b7"/>
    <rect x="160" y="220" width="20" height="30" fill="#c9d8ff"/>
    <rect x="190" y="220" width="20" height="30" fill="#c9d8ff"/>
    <rect x="220" y="220" width="20" height="30" fill="#c9d8ff"/>
    <rect x="160" y="260" width="20" height="30" fill="#c9d8ff"/>
    <rect x="190" y="260" width="20" height="30" fill="#c9d8ff"/>
    <rect x="220" y="260" width="20" height="30" fill="#c9d8ff"/>
    <rect x="160" y="300" width="20" height="30" fill="#c9d8ff"/>
    <rect x="190" y="300" width="20" height="30" fill="#c9d8ff"/>
    <rect x="220" y="300" width="20" height="30" fill="#c9d8ff"/>
    <rect x="160" y="340" width="20" height="30" fill="#c9d8ff"/>
    <rect x="190" y="340" width="20" height="30" fill="#c9d8ff"/>
    <rect x="220" y="340" width="20" height="30" fill="#c9d8ff"/>
    <rect x="160" y="380" width="20" height="30" fill="#c9d8ff"/>
    <rect x="190" y="380" width="20" height="30" fill="#c9d8ff"/>
    <rect x="220" y="380" width="20" height="30" fill="#c9d8ff"/>
    <rect x="160" y="420" width="20" height="30" fill="#c9d8ff"/>
    <rect x="190" y="420" width="20" height="30" fill="#c9d8ff"/>
    <rect x="220" y="420" width="20" height="30" fill="#c9d8ff"/>
    <rect x="160" y="460" width="20" height="30" fill="#c9d8ff"/>
    <rect x="190" y="460" width="20" height="30" fill="#c9d8ff"/>
    <rect x="220" y="460" width="20" height="30" fill="#c9d8ff"/>
    
    <!-- Building 4 (Right) -->
    <rect x="610" y="250" width="90" height="250" fill="#3a5ca8"/>
    <rect x="620" y="270" width="15" height="20" fill="#c9d8ff"/>
    <rect x="645" y="270" width="15" height="20" fill="#c9d8ff"/>
    <rect x="670" y="270" width="15" height="20" fill="#c9d8ff"/>
    <rect x="620" y="300" width="15" height="20" fill="#c9d8ff"/>
    <rect x="645" y="300" width="15" height="20" fill="#c9d8ff"/>
    <rect x="670" y="300" width="15" height="20" fill="#c9d8ff"/>
    <rect x="620" y="330" width="15" height="20" fill="#c9d8ff"/>
    <rect x="645" y="330" width="15" height="20" fill="#c9d8ff"/>
    <rect x="670" y="330" width="15" height="20" fill="#c9d8ff"/>
    <rect x="620" y="360" width="15" height="20" fill="#c9d8ff"/>
    <rect x="645" y="360" width="15" height="20" fill="#c9d8ff"/>
    <rect x="670" y="360" width="15" height="20" fill="#c9d8ff"/>
    <rect x="620" y="390" width="15" height="20" fill="#c9d8ff"/>
    <rect x="645" y="390" width="15" height="20" fill="#c9d8ff"/>
    <rect x="670" y="390" width="15" height="20" fill="#c9d8ff"/>
    <rect x="620" y="420" width="15" height="20" fill="#c9d8ff"/>
    <rect x="645" y="420" width="15" height="20" fill="#c9d8ff"/>
    <rect x="670" y="420" width="15" height="20" fill="#c9d8ff"/>
    <rect x="620" y="450" width="15" height="20" fill="#c9d8ff"/>
    <rect x="645" y="450" width="15" height="20" fill="#c9d8ff"/>
    <rect x="670" y="450" width="15" height="20" fill="#c9d8ff"/>
    <rect x="620" y="480" width="15" height="20" fill="#c9d8ff"/>
    <rect x="645" y="480" width="15" height="20" fill="#c9d8ff"/>
    <rect x="670" y="480" width="15" height="20" fill="#c9d8ff"/>
  </g>
  
  <!-- Ground -->
  <rect x="0" y="500" width="800" height="100" fill="#e6eeff"/>
  
  <!-- Road -->
  <rect x="0" y="520" width="800" height="40" fill="#8a8a8a"/>
  <rect x="0" y="540" width="800" height="2" fill="#ffffff" stroke="none" stroke-dasharray="10,10"/>
  
  <!-- Sea in the background (representing Mumbai's coastline) -->
  <rect x="0" y="500" width="800" height="20" fill="#4fc3f7"/>
  
  <!-- Palm Trees (representing Mumbai's coastal area) -->
  <g>
    <!-- Palm Tree 1 -->
    <rect x="50" y="460" width="8" height="40" fill="#795548" transform="rotate(5, 50, 460)"/>
    <path d="M 54 460 C 44 440, 34 450, 24 440 C 34 450, 44 440, 54 430 C 64 440, 74 450, 84 440 C 74 450, 64 440, 54 460" fill="#66bb6a"/>
    
    <!-- Palm Tree 2 -->
    <rect x="750" y="460" width="8" height="40" fill="#795548" transform="rotate(-5, 750, 460)"/>
    <path d="M 754 460 C 744 440, 734 450, 724 440 C 734 450, 744 440, 754 430 C 764 440, 774 450, 784 440 C 774 450, 764 440, 754 460" fill="#66bb6a"/>
  </g>
  
  <!-- Sun -->
  <circle cx="100" cy="100" r="50" fill="#ffeb3b"/>
  
  <!-- Clouds -->
  <g fill="#ffffff">
    <ellipse cx="250" cy="80" rx="50" ry="30"/>
    <ellipse cx="280" cy="70" rx="40" ry="25"/>
    <ellipse cx="220" cy="70" rx="40" ry="25"/>
    
    <ellipse cx="550" cy="120" rx="60" ry="35"/>
    <ellipse cx="580" cy="110" rx="50" ry="30"/>
    <ellipse cx="520" cy="110" rx="50" ry="30"/>
  </g>
  
  <!-- Text -->
  <text x="400" y="570" font-family="Arial" font-size="24" fill="#333333" text-anchor="middle">MKDigital Mumbai Office</text>
</svg>