<svg xmlns="http://www.w3.org/2000/svg" viewBox="0 0 800 600" width="800" height="600">
  <!-- Background -->
  <rect width="800" height="600" fill="#f0f5ff"/>
  
  <!-- Skyline -->
  <g>
    <!-- Building 1 -->
    <rect x="100" y="200" width="120" height="300" fill="#4a6baf"/>
    <rect x="110" y="220" width="20" height="30" fill="#c9d8ff"/>
    <rect x="140" y="220" width="20" height="30" fill="#c9d8ff"/>
    <rect x="170" y="220" width="20" height="30" fill="#c9d8ff"/>
    <rect x="110" y="260" width="20" height="30" fill="#c9d8ff"/>
    <rect x="140" y="260" width="20" height="30" fill="#c9d8ff"/>
    <rect x="170" y="260" width="20" height="30" fill="#c9d8ff"/>
    <rect x="110" y="300" width="20" height="30" fill="#c9d8ff"/>
    <rect x="140" y="300" width="20" height="30" fill="#c9d8ff"/>
    <rect x="170" y="300" width="20" height="30" fill="#c9d8ff"/>
    <rect x="110" y="340" width="20" height="30" fill="#c9d8ff"/>
    <rect x="140" y="340" width="20" height="30" fill="#c9d8ff"/>
    <rect x="170" y="340" width="20" height="30" fill="#c9d8ff"/>
    <rect x="110" y="380" width="20" height="30" fill="#c9d8ff"/>
    <rect x="140" y="380" width="20" height="30" fill="#c9d8ff"/>
    <rect x="170" y="380" width="20" height="30" fill="#c9d8ff"/>
    <rect x="110" y="420" width="20" height="30" fill="#c9d8ff"/>
    <rect x="140" y="420" width="20" height="30" fill="#c9d8ff"/>
    <rect x="170" y="420" width="20" height="30" fill="#c9d8ff"/>
    <rect x="110" y="460" width="20" height="30" fill="#c9d8ff"/>
    <rect x="140" y="460" width="20" height="30" fill="#c9d8ff"/>
    <rect x="170" y="460" width="20" height="30" fill="#c9d8ff"/>
    
    <!-- Building 2 (Tech Park) -->
    <rect x="250" y="150" width="200" height="350" fill="#2d4b8e"/>
    <rect x="270" y="170" width="160" height="310" fill="#3a5ca8"/>
    
    <!-- Windows for Building 2 -->
    <g fill="#c9d8ff">
      <!-- Row 1 -->
      <rect x="280" y="180" width="20" height="20"/>
      <rect x="310" y="180" width="20" height="20"/>
      <rect x="340" y="180" width="20" height="20"/>
      <rect x="370" y="180" width="20" height="20"/>
      <rect x="400" y="180" width="20" height="20"/>
      
      <!-- Row 2 -->
      <rect x="280" y="210" width="20" height="20"/>
      <rect x="310" y="210" width="20" height="20"/>
      <rect x="340" y="210" width="20" height="20"/>
      <rect x="370" y="210" width="20" height="20"/>
      <rect x="400" y="210" width="20" height="20"/>
      
      <!-- Row 3 -->
      <rect x="280" y="240" width="20" height="20"/>
      <rect x="310" y="240" width="20" height="20"/>
      <rect x="340" y="240" width="20" height="20"/>
      <rect x="370" y="240" width="20" height="20"/>
      <rect x="400" y="240" width="20" height="20"/>
      
      <!-- Row 4 -->
      <rect x="280" y="270" width="20" height="20"/>
      <rect x="310" y="270" width="20" height="20"/>
      <rect x="340" y="270" width="20" height="20"/>
      <rect x="370" y="270" width="20" height="20"/>
      <rect x="400" y="270" width="20" height="20"/>
      
      <!-- Row 5 -->
      <rect x="280" y="300" width="20" height="20"/>
      <rect x="310" y="300" width="20" height="20"/>
      <rect x="340" y="300" width="20" height="20"/>
      <rect x="370" y="300" width="20" height="20"/>
      <rect x="400" y="300" width="20" height="20"/>
      
      <!-- Row 6 -->
      <rect x="280" y="330" width="20" height="20"/>
      <rect x="310" y="330" width="20" height="20"/>
      <rect x="340" y="330" width="20" height="20"/>
      <rect x="370" y="330" width="20" height="20"/>
      <rect x="400" y="330" width="20" height="20"/>
      
      <!-- Row 7 -->
      <rect x="280" y="360" width="20" height="20"/>
      <rect x="310" y="360" width="20" height="20"/>
      <rect x="340" y="360" width="20" height="20"/>
      <rect x="370" y="360" width="20" height="20"/>
      <rect x="400" y="360" width="20" height="20"/>
      
      <!-- Row 8 -->
      <rect x="280" y="390" width="20" height="20"/>
      <rect x="310" y="390" width="20" height="20"/>
      <rect x="340" y="390" width="20" height="20"/>
      <rect x="370" y="390" width="20" height="20"/>
      <rect x="400" y="390" width="20" height="20"/>
      
      <!-- Row 9 -->
      <rect x="280" y="420" width="20" height="20"/>
      <rect x="310" y="420" width="20" height="20"/>
      <rect x="340" y="420" width="20" height="20"/>
      <rect x="370" y="420" width="20" height="20"/>
      <rect x="400" y="420" width="20" height="20"/>
      
      <!-- Row 10 -->
      <rect x="280" y="450" width="20" height="20"/>
      <rect x="310" y="450" width="20" height="20"/>
      <rect x="340" y="450" width="20" height="20"/>
      <rect x="370" y="450" width="20" height="20"/>
      <rect x="400" y="450" width="20" height="20"/>
    </g>
    
    <!-- Entrance -->
    <rect x="320" y="450" width="60" height="50" fill="#1a3366"/>
    <rect x="340" y="460" width="20" height="40" fill="#c9d8ff"/>
    
    <!-- Building 3 -->
    <rect x="480" y="250" width="100" height="250" fill="#5273b7"/>
    <rect x="490" y="270" width="20" height="30" fill="#c9d8ff"/>
    <rect x="520" y="270" width="20" height="30" fill="#c9d8ff"/>
    <rect x="550" y="270" width="20" height="30" fill="#c9d8ff"/>
    <rect x="490" y="310" width="20" height="30" fill="#c9d8ff"/>
    <rect x="520" y="310" width="20" height="30" fill="#c9d8ff"/>
    <rect x="550" y="310" width="20" height="30" fill="#c9d8ff"/>
    <rect x="490" y="350" width="20" height="30" fill="#c9d8ff"/>
    <rect x="520" y="350" width="20" height="30" fill="#c9d8ff"/>
    <rect x="550" y="350" width="20" height="30" fill="#c9d8ff"/>
    <rect x="490" y="390" width="20" height="30" fill="#c9d8ff"/>
    <rect x="520" y="390" width="20" height="30" fill="#c9d8ff"/>
    <rect x="550" y="390" width="20" height="30" fill="#c9d8ff"/>
    <rect x="490" y="430" width="20" height="30" fill="#c9d8ff"/>
    <rect x="520" y="430" width="20" height="30" fill="#c9d8ff"/>
    <rect x="550" y="430" width="20" height="30" fill="#c9d8ff"/>
    
    <!-- Building 4 -->
    <rect x="600" y="300" width="80" height="200" fill="#3a5ca8"/>
    <rect x="610" y="320" width="15" height="20" fill="#c9d8ff"/>
    <rect x="635" y="320" width="15" height="20" fill="#c9d8ff"/>
    <rect x="660" y="320" width="15" height="20" fill="#c9d8ff"/>
    <rect x="610" y="350" width="15" height="20" fill="#c9d8ff"/>
    <rect x="635" y="350" width="15" height="20" fill="#c9d8ff"/>
    <rect x="660" y="350" width="15" height="20" fill="#c9d8ff"/>
    <rect x="610" y="380" width="15" height="20" fill="#c9d8ff"/>
    <rect x="635" y="380" width="15" height="20" fill="#c9d8ff"/>
    <rect x="660" y="380" width="15" height="20" fill="#c9d8ff"/>
    <rect x="610" y="410" width="15" height="20" fill="#c9d8ff"/>
    <rect x="635" y="410" width="15" height="20" fill="#c9d8ff"/>
    <rect x="660" y="410" width="15" height="20" fill="#c9d8ff"/>
    <rect x="610" y="440" width="15" height="20" fill="#c9d8ff"/>
    <rect x="635" y="440" width="15" height="20" fill="#c9d8ff"/>
    <rect x="660" y="440" width="15" height="20" fill="#c9d8ff"/>
    <rect x="610" y="470" width="15" height="20" fill="#c9d8ff"/>
    <rect x="635" y="470" width="15" height="20" fill="#c9d8ff"/>
    <rect x="660" y="470" width="15" height="20" fill="#c9d8ff"/>
  </g>
  
  <!-- Ground -->
  <rect x="0" y="500" width="800" height="100" fill="#e6eeff"/>
  
  <!-- Road -->
  <rect x="0" y="520" width="800" height="40" fill="#8a8a8a"/>
  <rect x="0" y="540" width="800" height="2" fill="#ffffff" stroke="none" stroke-dasharray="10,10"/>
  
  <!-- Trees -->
  <g>
    <!-- Tree 1 -->
    <rect x="50" y="480" width="10" height="40" fill="#5d4037"/>
    <circle cx="55" cy="460" r="20" fill="#66bb6a"/>
    
    <!-- Tree 2 -->
    <rect x="200" y="480" width="10" height="40" fill="#5d4037"/>
    <circle cx="205" cy="460" r="20" fill="#66bb6a"/>
    
    <!-- Tree 3 -->
    <rect x="450" y="480" width="10" height="40" fill="#5d4037"/>
    <circle cx="455" cy="460" r="20" fill="#66bb6a"/>
    
    <!-- Tree 4 -->
    <rect x="700" y="480" width="10" height="40" fill="#5d4037"/>
    <circle cx="705" cy="460" r="20" fill="#66bb6a"/>
  </g>
  
  <!-- Sun -->
  <circle cx="700" cy="100" r="50" fill="#ffeb3b"/>
  
  <!-- Clouds -->
  <g fill="#ffffff">
    <ellipse cx="150" cy="100" rx="50" ry="30"/>
    <ellipse cx="180" cy="90" rx="40" ry="25"/>
    <ellipse cx="120" cy="90" rx="40" ry="25"/>
    
    <ellipse cx="450" cy="70" rx="60" ry="35"/>
    <ellipse cx="480" cy="60" rx="50" ry="30"/>
    <ellipse cx="420" cy="60" rx="50" ry="30"/>
  </g>
  
  <!-- Text -->
  <text x="400" y="570" font-family="Arial" font-size="24" fill="#333333" text-anchor="middle">MKDigital Bangalore Headquarters</text>
</svg>