<svg xmlns="http://www.w3.org/2000/svg" viewBox="0 0 800 600" width="800" height="600">
  <!-- Background -->
  <rect width="800" height="600" fill="#f8f8ff"/>
  
  <!-- Skyline -->
  <g>
    <!-- Building 1 (Cyber City) -->
    <rect x="250" y="150" width="250" height="350" fill="#3a4c7a"/>
    <rect x="270" y="170" width="210" height="310" fill="#4d62a3"/>
    
    <!-- Windows for Building 1 -->
    <g fill="#c9d8ff">
      <!-- Row 1 -->
      <rect x="280" y="180" width="25" height="25"/>
      <rect x="315" y="180" width="25" height="25"/>
      <rect x="350" y="180" width="25" height="25"/>
      <rect x="385" y="180" width="25" height="25"/>
      <rect x="420" y="180" width="25" height="25"/>
      <rect x="455" y="180" width="25" height="25"/>
      
      <!-- Row 2 -->
      <rect x="280" y="215" width="25" height="25"/>
      <rect x="315" y="215" width="25" height="25"/>
      <rect x="350" y="215" width="25" height="25"/>
      <rect x="385" y="215" width="25" height="25"/>
      <rect x="420" y="215" width="25" height="25"/>
      <rect x="455" y="215" width="25" height="25"/>
      
      <!-- Row 3 -->
      <rect x="280" y="250" width="25" height="25"/>
      <rect x="315" y="250" width="25" height="25"/>
      <rect x="350" y="250" width="25" height="25"/>
      <rect x="385" y="250" width="25" height="25"/>
      <rect x="420" y="250" width="25" height="25"/>
      <rect x="455" y="250" width="25" height="25"/>
      
      <!-- Row 4 -->
      <rect x="280" y="285" width="25" height="25"/>
      <rect x="315" y="285" width="25" height="25"/>
      <rect x="350" y="285" width="25" height="25"/>
      <rect x="385" y="285" width="25" height="25"/>
      <rect x="420" y="285" width="25" height="25"/>
      <rect x="455" y="285" width="25" height="25"/>
      
      <!-- Row 5 -->
      <rect x="280" y="320" width="25" height="25"/>
      <rect x="315" y="320" width="25" height="25"/>
      <rect x="350" y="320" width="25" height="25"/>
      <rect x="385" y="320" width="25" height="25"/>
      <rect x="420" y="320" width="25" height="25"/>
      <rect x="455" y="320" width="25" height="25"/>
      
      <!-- Row 6 -->
      <rect x="280" y="355" width="25" height="25"/>
      <rect x="315" y="355" width="25" height="25"/>
      <rect x="350" y="355" width="25" height="25"/>
      <rect x="385" y="355" width="25" height="25"/>
      <rect x="420" y="355" width="25" height="25"/>
      <rect x="455" y="355" width="25" height="25"/>
      
      <!-- Row 7 -->
      <rect x="280" y="390" width="25" height="25"/>
      <rect x="315" y="390" width="25" height="25"/>
      <rect x="350" y="390" width="25" height="25"/>
      <rect x="385" y="390" width="25" height="25"/>
      <rect x="420" y="390" width="25" height="25"/>
      <rect x="455" y="390" width="25" height="25"/>
      
      <!-- Row 8 -->
      <rect x="280" y="425" width="25" height="25"/>
      <rect x="315" y="425" width="25" height="25"/>
      <rect x="350" y="425" width="25" height="25"/>
      <rect x="385" y="425" width="25" height="25"/>
      <rect x="420" y="425" width="25" height="25"/>
      <rect x="455" y="425" width="25" height="25"/>
    </g>
    
    <!-- Entrance -->
    <rect x="350" y="460" width="50" height="40" fill="#2d3b59"/>
    <rect x="365" y="470" width="20" height="30" fill="#c9d8ff"/>
    
    <!-- Building 2 (Left) -->
    <rect x="100" y="250" width="120" height="250" fill="#5273b7"/>
    <rect x="110" y="270" width="20" height="30" fill="#c9d8ff"/>
    <rect x="140" y="270" width="20" height="30" fill="#c9d8ff"/>
    <rect x="170" y="270" width="20" height="30" fill="#c9d8ff"/>
    <rect x="110" y="310" width="20" height="30" fill="#c9d8ff"/>
    <rect x="140" y="310" width="20" height="30" fill="#c9d8ff"/>
    <rect x="170" y="310" width="20" height="30" fill="#c9d8ff"/>
    <rect x="110" y="350" width="20" height="30" fill="#c9d8ff"/>
    <rect x="140" y="350" width="20" height="30" fill="#c9d8ff"/>
    <rect x="170" y="350" width="20" height="30" fill="#c9d8ff"/>
    <rect x="110" y="390" width="20" height="30" fill="#c9d8ff"/>
    <rect x="140" y="390" width="20" height="30" fill="#c9d8ff"/>
    <rect x="170" y="390" width="20" height="30" fill="#c9d8ff"/>
    <rect x="110" y="430" width="20" height="30" fill="#c9d8ff"/>
    <rect x="140" y="430" width="20" height="30" fill="#c9d8ff"/>
    <rect x="170" y="430" width="20" height="30" fill="#c9d8ff"/>
    <rect x="110" y="470" width="20" height="30" fill="#c9d8ff"/>
    <rect x="140" y="470" width="20" height="30" fill="#c9d8ff"/>
    <rect x="170" y="470" width="20" height="30" fill="#c9d8ff"/>
    
    <!-- Building 3 (Right) -->
    <rect x="530" y="200" width="150" height="300" fill="#3a5ca8"/>
    <rect x="540" y="220" width="25" height="30" fill="#c9d8ff"/>
    <rect x="575" y="220" width="25" height="30" fill="#c9d8ff"/>
    <rect x="610" y="220" width="25" height="30" fill="#c9d8ff"/>
    <rect x="645" y="220" width="25" height="30" fill="#c9d8ff"/>
    <rect x="540" y="260" width="25" height="30" fill="#c9d8ff"/>
    <rect x="575" y="260" width="25" height="30" fill="#c9d8ff"/>
    <rect x="610" y="260" width="25" height="30" fill="#c9d8ff"/>
    <rect x="645" y="260" width="25" height="30" fill="#c9d8ff"/>
    <rect x="540" y="300" width="25" height="30" fill="#c9d8ff"/>
    <rect x="575" y="300" width="25" height="30" fill="#c9d8ff"/>
    <rect x="610" y="300" width="25" height="30" fill="#c9d8ff"/>
    <rect x="645" y="300" width="25" height="30" fill="#c9d8ff"/>
    <rect x="540" y="340" width="25" height="30" fill="#c9d8ff"/>
    <rect x="575" y="340" width="25" height="30" fill="#c9d8ff"/>
    <rect x="610" y="340" width="25" height="30" fill="#c9d8ff"/>
    <rect x="645" y="340" width="25" height="30" fill="#c9d8ff"/>
    <rect x="540" y="380" width="25" height="30" fill="#c9d8ff"/>
    <rect x="575" y="380" width="25" height="30" fill="#c9d8ff"/>
    <rect x="610" y="380" width="25" height="30" fill="#c9d8ff"/>
    <rect x="645" y="380" width="25" height="30" fill="#c9d8ff"/>
    <rect x="540" y="420" width="25" height="30" fill="#c9d8ff"/>
    <rect x="575" y="420" width="25" height="30" fill="#c9d8ff"/>
    <rect x="610" y="420" width="25" height="30" fill="#c9d8ff"/>
    <rect x="645" y="420" width="25" height="30" fill="#c9d8ff"/>
    <rect x="540" y="460" width="25" height="30" fill="#c9d8ff"/>
    <rect x="575" y="460" width="25" height="30" fill="#c9d8ff"/>
    <rect x="610" y="460" width="25" height="30" fill="#c9d8ff"/>
    <rect x="645" y="460" width="25" height="30" fill="#c9d8ff"/>
  </g>
  
  <!-- Ground -->
  <rect x="0" y="500" width="800" height="100" fill="#e6eeff"/>
  
  <!-- Road -->
  <rect x="0" y="520" width="800" height="40" fill="#8a8a8a"/>
  <rect x="0" y="540" width="800" height="2" fill="#ffffff" stroke="none" stroke-dasharray="10,10"/>
  
  <!-- Delhi Metro Line (representing Delhi's infrastructure) -->
  <rect x="0" y="480" width="800" height="10" fill="#f44336"/>
  <rect x="150" y="480" width="20" height="10" fill="#ffffff"/>
  <rect x="300" y="480" width="20" height="10" fill="#ffffff"/>
  <rect x="450" y="480" width="20" height="10" fill="#ffffff"/>
  <rect x="600" y="480" width="20" height="10" fill="#ffffff"/>
  
  <!-- Trees (representing Delhi's greenery) -->
  <g>
    <!-- Tree 1 -->
    <rect x="50" y="460" width="10" height="40" fill="#5d4037"/>
    <circle cx="55" cy="440" r="20" fill="#66bb6a"/>
    
    <!-- Tree 2 -->
    <rect x="200" y="460" width="10" height="40" fill="#5d4037"/>
    <circle cx="205" cy="440" r="20" fill="#66bb6a"/>
    
    <!-- Tree 3 -->
    <rect x="450" y="460" width="10" height="40" fill="#5d4037"/>
    <circle cx="455" cy="440" r="20" fill="#66bb6a"/>
    
    <!-- Tree 4 -->
    <rect x="700" y="460" width="10" height="40" fill="#5d4037"/>
    <circle cx="705" cy="440" r="20" fill="#66bb6a"/>
  </g>
  
  <!-- India Gate Silhouette (iconic Delhi landmark) -->
  <g fill="#455a8c">
    <rect x="50" y="150" width="20" height="100" />
    <rect x="30" y="150" width="60" height="20" />
    <path d="M 30 150 L 50 120 L 70 150 Z" />
  </g>
  
  <!-- Sun -->
  <circle cx="700" cy="100" r="50" fill="#ffeb3b"/>
  
  <!-- Clouds -->
  <g fill="#ffffff">
    <ellipse cx="150" cy="100" rx="50" ry="30"/>
    <ellipse cx="180" cy="90" rx="40" ry="25"/>
    <ellipse cx="120" cy="90" rx="40" ry="25"/>
    
    <ellipse cx="450" cy="70" rx="60" ry="35"/>
    <ellipse cx="480" cy="60" rx="50" ry="30"/>
    <ellipse cx="420" cy="60" rx="50" ry="30"/>
  </g>
  
  <!-- Text -->
  <text x="400" y="570" font-family="Arial" font-size="24" fill="#333333" text-anchor="middle">MKDigital Delhi NCR Office</text>
</svg>