<svg xmlns="http://www.w3.org/2000/svg" width="100" height="100" viewBox="0 0 100 100">
  <defs>
    <pattern id="grid" width="10" height="10" patternUnits="userSpaceOnUse">
      <path d="M 10 0 L 0 0 0 10" fill="none" stroke="rgba(58, 92, 168, 0.1)" stroke-width="0.5"/>
    </pattern>
    
    <pattern id="dots" width="20" height="20" patternUnits="userSpaceOnUse">
      <circle cx="10" cy="10" r="1" fill="rgba(58, 92, 168, 0.2)"/>
    </pattern>
    
    <pattern id="combined" width="100" height="100" patternUnits="userSpaceOnUse">
      <rect width="100" height="100" fill="url(#grid)"/>
      <rect width="100" height="100" fill="url(#dots)"/>
      
      <!-- Larger Elements -->
      <circle cx="25" cy="25" r="3" fill="rgba(58, 92, 168, 0.1)"/>
      <circle cx="75" cy="75" r="3" fill="rgba(58, 92, 168, 0.1)"/>
      <circle cx="75" cy="25" r="2" fill="rgba(58, 92, 168, 0.1)"/>
      <circle cx="25" cy="75" r="2" fill="rgba(58, 92, 168, 0.1)"/>
      
      <!-- Abstract Digital Elements -->
      <path d="M 40 40 L 45 35 L 50 40 L 55 35 L 60 40" stroke="rgba(58, 92, 168, 0.15)" stroke-width="1" fill="none"/>
      <path d="M 40 60 L 45 65 L 50 60 L 55 65 L 60 60" stroke="rgba(58, 92, 168, 0.15)" stroke-width="1" fill="none"/>
      
      <!-- Connection Lines (representing digital connectivity) -->
      <line x1="25" y1="25" x2="40" y2="40" stroke="rgba(58, 92, 168, 0.1)" stroke-width="0.5"/>
      <line x1="60" y1="40" x2="75" y2="25" stroke="rgba(58, 92, 168, 0.1)" stroke-width="0.5"/>
      <line x1="25" y1="75" x2="40" y2="60" stroke="rgba(58, 92, 168, 0.1)" stroke-width="0.5"/>
      <line x1="60" y1="60" x2="75" y2="75" stroke="rgba(58, 92, 168, 0.1)" stroke-width="0.5"/>
    </pattern>
  </defs>
  
  <rect width="100" height="100" fill="url(#combined)"/>
</svg>