<svg xmlns="http://www.w3.org/2000/svg" viewBox="0 0 300 300" width="300" height="300">
  <!-- Background -->
  <rect width="300" height="300" fill="#f5f8ff" rx="20" ry="20" />
  
  <!-- Search Bar -->
  <rect x="50" y="80" width="200" height="40" rx="20" ry="20" fill="#ffffff" stroke="#4267b2" stroke-width="3" />
  <circle cx="70" cy="100" r="10" fill="none" stroke="#4267b2" stroke-width="3" />
  <line x1="77" y1="107" x2="85" y2="115" stroke="#4267b2" stroke-width="3" stroke-linecap="round" />
  <text x="120" y="105" font-family="Arial" font-size="14" fill="#3a5999">MKDigital</text>
  
  <!-- Magnifying Glass with AI Core -->
  <g transform="translate(150, 170)">
    <!-- Magnifying Glass Handle -->
    <line x1="25" y1="25" x2="45" y2="45" stroke="#3a5999" stroke-width="8" stroke-linecap="round" />
    
    <!-- Magnifying Glass Circle -->
    <circle cx="0" cy="0" r="40" fill="#4267b2" opacity="0.9" />
    <circle cx="0" cy="0" r="35" fill="#5273b7" />
    
    <!-- AI Core Elements -->
    <g>
      <!-- Circuit Pattern -->
      <path d="M -20 0 L -10 0" stroke="#ffffff" stroke-width="2" />
      <path d="M 10 0 L 20 0" stroke="#ffffff" stroke-width="2" />
      <path d="M 0 -20 L 0 -10" stroke="#ffffff" stroke-width="2" />
      <path d="M 0 10 L 0 20" stroke="#ffffff" stroke-width="2" />
      
      <!-- Diagonal Lines -->
      <path d="M -15 -15 L -8 -8" stroke="#ffffff" stroke-width="2" />
      <path d="M 15 -15 L 8 -8" stroke="#ffffff" stroke-width="2" />
      <path d="M -15 15 L -8 8" stroke="#ffffff" stroke-width="2" />
      <path d="M 15 15 L 8 8" stroke="#ffffff" stroke-width="2" />
      
      <!-- Central AI Text -->
      <text x="0" y="5" font-family="Arial" font-size="14" font-weight="bold" fill="#ffffff" text-anchor="middle">AI</text>
    </g>
  </g>
  
  <!-- SERP Results -->
  <g transform="translate(50, 220)">
    <!-- Result 1 -->
    <rect x="0" y="0" width="200" height="15" rx="2" ry="2" fill="#e1e9ff" />
    <rect x="0" y="0" width="50" height="15" rx="2" ry="2" fill="#5273b7" />
    <text x="25" y="10" font-family="Arial" font-size="8" fill="#ffffff" text-anchor="middle">#1 Rank</text>
    
    <!-- Result 2 -->
    <rect x="0" y="20" width="180" height="15" rx="2" ry="2" fill="#e1e9ff" opacity="0.8" />
    
    <!-- Result 3 -->
    <rect x="0" y="40" width="160" height="15" rx="2" ry="2" fill="#e1e9ff" opacity="0.6" />
  </g>
  
  <!-- Keywords Cloud -->
  <g transform="translate(60, 140)">
    <text font-family="Arial" fill="#3a5999" opacity="0.7">
      <tspan x="0" y="0" font-size="10">keywords</tspan>
      <tspan x="30" y="15" font-size="14">ranking</tspan>
      <tspan x="-10" y="30" font-size="12">traffic</tspan>
      <tspan x="50" y="-15" font-size="16">SEO</tspan>
      <tspan x="100" y="10" font-size="11">analytics</tspan>
      <tspan x="80" y="-5" font-size="9">backlinks</tspan>
    </text>
  </g>
  
  <!-- Analytics Graph -->
  <g transform="translate(220, 140)">
    <polyline points="0,30 10,25 20,28 30,20 40,15 50,5" fill="none" stroke="#4267b2" stroke-width="2" />
    <circle cx="0" cy="30" r="3" fill="#4267b2" />
    <circle cx="10" cy="25" r="3" fill="#4267b2" />
    <circle cx="20" cy="28" r="3" fill="#4267b2" />
    <circle cx="30" cy="20" r="3" fill="#4267b2" />
    <circle cx="40" cy="15" r="3" fill="#4267b2" />
    <circle cx="50" cy="5" r="3" fill="#4267b2" />
  </g>
  
  <!-- Title -->
  <text x="150" y="40" font-family="Arial" font-size="16" font-weight="bold" fill="#3a5999" text-anchor="middle">SEO Marketing</text>
  <text x="150" y="60" font-family="Arial" font-size="12" fill="#5273b7" text-anchor="middle">AI-Powered Search Engine Optimization</text>
</svg>