<svg xmlns="http://www.w3.org/2000/svg" viewBox="0 0 200 200" width="200" height="200">
  <!-- Background Circle -->
  <circle cx="100" cy="100" r="100" fill="#f5f8ff"/>
  
  <!-- Person Silhouette -->
  <g>
    <!-- Head -->
    <circle cx="100" cy="70" r="40" fill="#4267b2"/>
    
    <!-- Body -->
    <path d="M 60 140 C 60 120, 140 120, 140 140" fill="#4267b2"/>
    
    <!-- Face Features (simplified) -->
    <circle cx="85" cy="60" r="5" fill="white"/>
    <circle cx="115" cy="60" r="5" fill="white"/>
    <path d="M 85 85 C 95 95, 105 95, 115 85" fill="none" stroke="white" stroke-width="3"/>
    
    <!-- Long Hair -->
    <path d="M 60 50 C 70 20, 130 20, 140 50" fill="#663300" stroke="#663300" stroke-width="1"/>
    <path d="M 60 50 C 70 60, 130 60, 140 50" fill="#663300" stroke="#663300" stroke-width="1"/>
    <path d="M 60 50 C 50 80, 60 110, 70 120" fill="#663300" stroke="#663300" stroke-width="1"/>
    <path d="M 140 50 C 150 80, 140 110, 130 120" fill="#663300" stroke="#663300" stroke-width="1"/>
  </g>
  
  <!-- Decorative Elements -->
  <g>
    <!-- Company Logo Placeholder -->
    <rect x="75" y="150" width="50" height="20" rx="5" ry="5" fill="#3a5999"/>
    <text x="100" y="165" font-family="Arial" font-size="10" fill="white" text-anchor="middle">MKDigital</text>
  </g>
  
  <!-- Name Label -->
  <text x="100" y="185" font-family="Arial" font-size="14" font-weight="bold" fill="#333" text-anchor="middle">Neha Gupta</text>
</svg>