<svg xmlns="http://www.w3.org/2000/svg" viewBox="0 0 200 200" width="200" height="200">
  <!-- Background Circle -->
  <circle cx="100" cy="100" r="100" fill="#f5f8ff"/>
  
  <!-- Person Silhouette -->
  <g>
    <!-- Head -->
    <circle cx="100" cy="70" r="40" fill="#3a5999"/>
    
    <!-- Body -->
    <path d="M 60 140 C 60 120, 140 120, 140 140" fill="#3a5999"/>
    
    <!-- Face Features (simplified) -->
    <circle cx="85" cy="60" r="5" fill="white"/>
    <circle cx="115" cy="60" r="5" fill="white"/>
    <path d="M 85 85 C 95 95, 105 95, 115 85" fill="none" stroke="white" stroke-width="3"/>
    
    <!-- Hair -->
    <path d="M 60 50 C 60 30, 140 30, 140 50" fill="#222" stroke="#222" stroke-width="2"/>
    <path d="M 60 50 C 70 70, 80 50, 90 60" fill="#222" stroke="#222" stroke-width="2"/>
    <path d="M 140 50 C 130 70, 120 50, 110 60" fill="#222" stroke="#222" stroke-width="2"/>
  </g>
  
  <!-- Decorative Elements -->
  <g>
    <!-- Company Logo Placeholder -->
    <rect x="75" y="150" width="50" height="20" rx="5" ry="5" fill="#4267b2"/>
    <text x="100" y="165" font-family="Arial" font-size="10" fill="white" text-anchor="middle">MKDigital</text>
  </g>
  
  <!-- Name Label -->
  <text x="100" y="185" font-family="Arial" font-size="14" font-weight="bold" fill="#333" text-anchor="middle">Neha Patel</text>
</svg>